#tb 0: 1/25
#media_type 0: video
#codec_id 0: rawvideo
#dimensions 0: 720x480
#sar 0: 0/1
0,          0,          0,        1,   518400, 0x4073cc0b
0,          1,          1,        1,   518400, 0x5f599a48
0,          2,          2,        1,   518400, 0xc6fe555a
0,          3,          3,        1,   518400, 0xe63ac345
0,          4,          4,        1,   518400, 0x9b4f0c5c
0,          5,          5,        1,   518400, 0x98aaba2d
0,          6,          6,        1,   518400, 0xd629bd09
0,          7,          7,        1,   518400, 0xe9796c37
0,          8,          8,        1,   518400, 0xba54d16e
0,          9,          9,        1,   518400, 0xe396c3eb
0,         10,         10,        1,   518400, 0x63ee4b81
0,         11,         11,        1,   518400, 0x68ac6986
0,         12,         12,        1,   518400, 0xe0d53000
